<svg width="43" height="42" viewBox="0 0 43 42" fill="none" xmlns="http://www.w3.org/2000/svg">
<g clip-path="url(#clip0_2339_7560)">
<rect x="0.301758" width="42" height="42" rx="21" />
<path d="M21.3018 0C9.70976 0 0.301758 9.408 0.301758 21C0.301758 32.592 9.70976 42 21.3018 42C32.8938 42 42.3018 32.592 42.3018 21C42.3018 9.408 32.8938 0 21.3018 0ZM29.7018 23.1H23.4018V29.4C23.4018 30.555 22.4568 31.5 21.3018 31.5C20.1468 31.5 19.2018 30.555 19.2018 29.4V23.1H12.9018C11.7468 23.1 10.8018 22.155 10.8018 21C10.8018 19.845 11.7468 18.9 12.9018 18.9H19.2018V12.6C19.2018 11.445 20.1468 10.5 21.3018 10.5C22.4568 10.5 23.4018 11.445 23.4018 12.6V18.9H29.7018C30.8568 18.9 31.8018 19.845 31.8018 21C31.8018 22.155 30.8568 23.1 29.7018 23.1Z" fill="url(#paint0_linear_2339_7560)" style=""/>
</g>
<defs>
<linearGradient id="paint0_linear_2339_7560" x1="21.3018" y1="0" x2="21.3018" y2="42" gradientUnits="userSpaceOnUse">
<stop stop-color="#664EFA" style="stop-color:#664EFA;stop-color:color(display-p3 0.3996 0.3051 0.9802);stop-opacity:1;"/>
<stop offset="1" stop-color="#7DBAF2" stop-opacity="0.8" style="stop-color:#7DBAF2;stop-color:color(display-p3 0.4896 0.7286 0.9492);stop-opacity:0.8;"/>
</linearGradient>
<clipPath id="clip0_2339_7560">
<rect x="0.301758" width="42" height="42" rx="21" />
</clipPath>
</defs>
</svg>
