<svg xmlns="http://www.w3.org/2000/svg" width="16" height="68" viewBox="0 0 16 68" fill="none">
  <path d="M16 53.5195C16 45.9369 12.9754 39.0557 8.05864 34.0002C12.9754 28.9447 16 22.0635 16 14.4809C16 9.68409 14.7896 5.16799 12.6555 1.21722C12.4816 1.03239 12.3062 0.848915 12.1294 0.666832C12.5083 2.72763 12.7062 4.85117 12.7062 7.02059C12.7062 17.8587 7.76629 27.5514 0 34.0002C7.76629 40.449 12.7062 50.1416 12.7062 60.9798C12.7062 63.1492 12.5083 65.2727 12.1294 67.3335C12.3062 67.1514 12.4816 66.9679 12.6555 66.7831C14.7896 62.8323 16 58.3162 16 53.5195Z" fill="#BFDBFE"/>
</svg>