<svg xmlns="http://www.w3.org/2000/svg" width="16" height="68" viewBox="0 0 16 68" fill="none">
  <path d="M0 53.5195C0 45.9369 3.02464 39.0557 7.94136 34.0002C3.02464 28.9447 0 22.0635 0 14.4809C0 9.68408 1.21041 5.16799 3.34451 1.21722C3.51845 1.03239 3.69383 0.848915 3.87064 0.666832C3.49174 2.72763 3.29383 4.85117 3.29383 7.02059C3.29383 17.8587 8.23371 27.5514 16 34.0002C8.23371 40.449 3.29383 50.1416 3.29383 60.9798C3.29383 63.1492 3.49174 65.2727 3.87064 67.3335C3.69381 67.1514 3.51841 66.9679 3.34447 66.7831C1.21039 62.8323 0 58.3162 0 53.5195Z" fill="#BFDBFE"/>
</svg>